<svg width="32" height="31" viewBox="0 0 32 31" fill="none" xmlns="http://www.w3.org/2000/svg">
<path d="M4.94008 2.32812H1.39893V5.86926H4.94008V2.32812Z" fill="white"/>
<path d="M18.2204 2.32812H14.6792V5.86926H18.2204V2.32812Z" fill="white"/>
<path d="M4.94008 15.6082H1.39893V19.1494H4.94008V15.6082Z" fill="white"/>
<path d="M18.2204 15.6082H14.6792V19.1494H18.2204V15.6082Z" fill="white"/>
<path d="M16.4499 4.09863H3.16992V17.3785H16.4499V4.09863Z" stroke="white" stroke-linecap="round" stroke-linejoin="round"/>
<path d="M7.02038 23.6582H1V29.6786H7.02038V23.6582Z" stroke="white" stroke-linecap="round" stroke-linejoin="round"/>
<path d="M13.0404 23.6582H7.02002V29.6786H13.0404V23.6582Z" stroke="white" stroke-linecap="round" stroke-linejoin="round"/>
<path d="M19.0609 23.6582H13.0405V29.6786H19.0609V23.6582Z" stroke="white" stroke-linecap="round" stroke-linejoin="round"/>
<path d="M25.0809 23.6582H19.0605V29.6786H25.0809V23.6582Z" stroke="white" stroke-linecap="round" stroke-linejoin="round"/>
<path d="M31.1014 23.6582H25.0811V29.6786H31.1014V23.6582Z" stroke="white" stroke-linecap="round" stroke-linejoin="round"/>
<path d="M26.5688 1C27.6252 1 28.4828 1.85758 28.4828 2.914V6.36506H24.6548V2.914C24.6548 1.85758 25.5124 1 26.5688 1Z" fill="white" stroke="white" stroke-linecap="round" stroke-linejoin="round"/>
<path d="M30.615 6.3645H22.4868V9.4094H30.615V6.3645Z" stroke="white" stroke-linecap="round" stroke-linejoin="round"/>
<path d="M25.0288 16.7595V9.40991H28.0737V16.7595L26.551 19.1491L25.0288 16.7595Z" stroke="white" stroke-linecap="round" stroke-linejoin="round"/>
<path d="M7.84131 13.0963L9.80946 8.3811" stroke="white" stroke-linecap="round" stroke-linejoin="round"/>
<path d="M11.7777 13.0963L9.80957 8.3811" stroke="white" stroke-linecap="round" stroke-linejoin="round"/>
<path d="M8.49463 11.5322H11.1249" stroke="white" stroke-linecap="round" stroke-linejoin="round"/>
</svg>
