<svg width="39" height="29" viewBox="0 0 39 29" fill="none" xmlns="http://www.w3.org/2000/svg">
<path d="M32.6885 13.6924V24.4386" stroke="white" stroke-miterlimit="10" stroke-linecap="round" stroke-linejoin="round"/>
<path d="M3.75 24.4385V7.43078C3.75 6.20388 4.76538 5.18848 5.99231 5.18848H29.1769" stroke="white" stroke-miterlimit="10" stroke-linecap="round" stroke-linejoin="round"/>
<path d="M15.1308 24.4385C15.1308 25.2847 15.8077 25.6654 16.6538 25.6654H19.7423C20.5885 25.6654 21.2654 25.2847 21.2654 24.4385H35.3115V25.9193C35.3115 26.8077 34.5923 27.527 33.7038 27.527H2.60769C1.71923 27.527 1 26.8077 1 25.9193V24.4385H15.1308Z" stroke="white" stroke-miterlimit="10" stroke-linecap="round" stroke-linejoin="round"/>
<path d="M10.604 13.6924H13.1425" stroke="white" stroke-miterlimit="10" stroke-linecap="round" stroke-linejoin="round"/>
<path d="M7.64258 11.1541L8.91181 12.4233L7.64258 13.6925" stroke="white" stroke-miterlimit="10" stroke-linecap="round" stroke-linejoin="round"/>
<path d="M7.64258 18.854H10.181" stroke="white" stroke-miterlimit="10" stroke-linecap="round" stroke-linejoin="round"/>
<path d="M11.873 18.854H15.6807" stroke="white" stroke-miterlimit="10" stroke-linecap="round" stroke-linejoin="round"/>
<path d="M7.64258 16.3154H12.0849" stroke="white" stroke-miterlimit="10" stroke-linecap="round" stroke-linejoin="round"/>
<path d="M13.9888 16.3154H16.5272" stroke="white" stroke-miterlimit="10" stroke-linecap="round" stroke-linejoin="round"/>
<path d="M18.2192 16.3154H21.6039" stroke="white" stroke-miterlimit="10" stroke-linecap="round" stroke-linejoin="round"/>
<path d="M37.7657 7.34622L35.2695 8.91163L32.6887 10.5193L30.1503 8.91163L27.6118 7.34622L30.1503 5.73853L32.6887 7.34622H32.731L35.2272 5.73853L37.7657 7.34622Z" fill="white"/>
<path d="M35.2695 8.91162L37.7657 10.5193L32.6887 13.6924L27.6118 10.5193L30.1503 8.91162" stroke="white" stroke-miterlimit="10" stroke-linecap="round" stroke-linejoin="round"/>
<path d="M32.6885 7.34625V7.30396L32.7308 7.34625" stroke="white" stroke-miterlimit="10" stroke-linecap="round" stroke-linejoin="round"/>
<path d="M30.1503 5.73853L27.6118 7.34622L30.1503 8.91163L32.6887 10.5193L35.2695 8.91163L37.7657 7.34622L35.2272 5.73853" stroke="white" stroke-miterlimit="10" stroke-linecap="round" stroke-linejoin="round"/>
<path d="M30.1503 5.73848L27.6118 4.17308L32.6887 1L37.7657 4.17308L35.2272 5.73848L32.731 7.34618H32.6887L30.1503 5.73848Z" stroke="white" stroke-miterlimit="10" stroke-linecap="round" stroke-linejoin="round"/>
</svg>
