<svg width="34" height="32" viewBox="0 0 34 32" fill="none" xmlns="http://www.w3.org/2000/svg">
<path d="M10.5194 23.8461C9.63094 22.323 7.98094 21.3076 6.1194 21.3076C4.25787 21.3076 2.60786 22.323 1.7194 23.8461C1.29633 23.0845 1.04248 22.2384 1.04248 21.3076C1.04248 20.2076 1.38094 19.1922 1.97325 18.3461C2.90402 17.0769 4.38479 16.2307 6.1194 16.2307C7.85402 16.2307 9.33479 17.0769 10.2656 18.3461C10.8579 19.1922 11.1963 20.2076 11.1963 21.3076C11.1963 22.2384 10.9425 23.0845 10.5194 23.8461Z" fill="white"/>
<path d="M28.9654 25.1152C29.8962 25.1152 30.6577 25.8768 30.6577 26.8075C30.6577 27.2729 30.4462 27.696 30.15 27.9921C29.8539 28.2883 29.4308 28.4998 28.9654 28.4998H21.35C20.4193 28.4998 19.6577 27.7383 19.6577 26.8075C19.6577 26.3421 19.8693 25.9191 20.1654 25.6229C20.4616 25.3268 20.8846 25.1152 21.35 25.1152H28.9654Z" fill="white"/>
<path d="M33.1961 3.5387V28.9234C33.1961 30.3195 32.0538 31.4618 30.6576 31.4618H19.6576C18.2614 31.4618 17.1191 30.3195 17.1191 28.9234V12.4234V3.5387C17.1191 2.14254 18.2614 1.00024 19.6576 1.00024H30.6576C32.0538 1.00024 33.1961 2.14254 33.1961 3.5387ZM33.1961 3.5387V3.66562" stroke="white"/>
<path d="M22.1962 17.4998H28.1193C29.5154 17.4998 30.6577 18.6421 30.6577 20.0382V20.8844C30.6577 22.2806 29.5154 23.4229 28.1193 23.4229H22.1962C20.8 23.4229 19.6577 22.2806 19.6577 20.8844V20.0382C19.6577 18.6421 20.7577 17.4998 22.1962 17.4998Z" stroke="white"/>
<path d="M11.1538 27.0192C12.5923 27.0192 13.7346 25.8769 13.7346 24.4808V14.9615C13.7346 13.5654 14.8769 12.4231 16.273 12.4231H17.1192" stroke="white" stroke-miterlimit="10" stroke-linecap="round" stroke-linejoin="round"/>
<path d="M10.2231 18.3461C10.8154 17.4999 11.1538 16.4845 11.1538 15.3845C11.1538 12.5922 8.86923 10.3076 6.07692 10.3076C3.28462 10.3076 1 12.5922 1 15.3845C1 16.4845 1.33846 17.4999 1.93077 18.3461" stroke="white" stroke-miterlimit="10" stroke-linecap="round" stroke-linejoin="round"/>
<path d="M10.5194 23.8461C10.9425 23.0845 11.1963 22.2384 11.1963 21.3076C11.1963 20.2076 10.8579 19.1922 10.2656 18.3461C9.33479 17.0769 7.85402 16.2307 6.1194 16.2307C4.38479 16.2307 2.90402 17.0769 1.97325 18.3461C1.38094 19.1922 1.04248 20.2076 1.04248 21.3076C1.04248 22.2384 1.29633 23.0845 1.7194 23.8461" stroke="white" stroke-miterlimit="10" stroke-linecap="round" stroke-linejoin="round"/>
<path d="M1.7194 23.8461C2.60786 22.323 4.25787 21.3076 6.1194 21.3076C7.98094 21.3076 9.63094 22.323 10.5194 23.8461C10.9425 24.6076 11.1963 25.4538 11.1963 26.3845C11.1963 26.5961 11.1963 26.8076 11.154 27.0191C10.9848 28.2884 10.3925 29.3884 9.46171 30.1922C8.57325 30.9961 7.38863 31.4614 6.1194 31.4614C4.85017 31.4614 3.66556 30.9961 2.7771 30.1922C1.7194 29.2614 1.04248 27.9076 1.04248 26.3845C1.04248 25.4538 1.25402 24.6076 1.7194 23.8461Z" stroke="white" stroke-miterlimit="10" stroke-linecap="round" stroke-linejoin="round"/>
<path d="M2.73486 30.1922C2.9464 28.5422 4.34256 27.2307 6.03486 27.2307H6.07717H6.11948C7.81179 27.2307 9.25025 28.5422 9.41948 30.1922" stroke="white" stroke-miterlimit="10" stroke-linecap="round" stroke-linejoin="round"/>
<path d="M6.07676 27.2308C5.14599 27.2308 4.42676 26.4693 4.42676 25.5385C4.42676 24.6077 5.1883 23.8462 6.11907 23.8462C7.04983 23.8462 7.81137 24.6077 7.81137 25.5385C7.81137 26.4693 7.09214 27.2308 6.16137 27.2308C6.11907 27.2308 6.11907 27.2308 6.07676 27.2308Z" stroke="white" stroke-miterlimit="10" stroke-linecap="round" stroke-linejoin="round"/>
</svg>
