<svg width="31" height="30" viewBox="0 0 31 30" fill="none" xmlns="http://www.w3.org/2000/svg">
<path d="M15.3326 14.9995C15.3326 13.6734 15.8594 12.4016 16.7971 11.464C17.7348 10.5263 19.0066 9.99951 20.3326 9.99951C21.6587 9.99951 22.9305 10.5263 23.8682 11.464C24.8059 12.4016 25.3326 13.6734 25.3326 14.9995C25.3326 16.3255 24.8059 17.5973 23.8682 18.535C22.9305 19.4727 21.6587 19.9994 20.3326 19.9994C19.0066 19.9994 17.7348 19.4727 16.7971 18.535C15.8594 17.5973 15.3326 16.3255 15.3326 14.9995V14.9995Z" fill="#1ABCFE"/>
<path d="M5.33289 25C5.33289 23.6739 5.85967 22.4021 6.79735 21.4645C7.73503 20.5268 9.0068 20 10.3329 20H15.3329V25C15.3329 26.326 14.8061 27.5978 13.8684 28.5355C12.9307 29.4731 11.659 29.9999 10.3329 29.9999C9.0068 29.9999 7.73503 29.4731 6.79735 28.5355C5.85967 27.5978 5.33289 26.326 5.33289 25H5.33289Z" fill="#0ACF83"/>
<path d="M15.3326 0V9.99992H20.3326C21.6587 9.99992 22.9305 9.47314 23.8682 8.53546C24.8059 7.59779 25.3326 6.32603 25.3326 4.99996C25.3326 3.67389 24.8059 2.40213 23.8682 1.46445C22.9305 0.52678 21.6587 0 20.3326 0L15.3326 0Z" fill="#FF7262"/>
<path d="M5.33289 4.99996C5.33289 6.32603 5.85967 7.59779 6.79735 8.53546C7.73503 9.47314 9.0068 9.99992 10.3329 9.99992H15.3329V0H10.3329C9.0068 0 7.73503 0.52678 6.79735 1.46445C5.85967 2.40213 5.33289 3.67389 5.33289 4.99996H5.33289Z" fill="#F24E1E"/>
<path d="M5.33289 14.9995C5.33289 16.3255 5.85967 17.5973 6.79735 18.535C7.73503 19.4727 9.0068 19.9994 10.3329 19.9994H15.3329V9.99951H10.3329C9.0068 9.99951 7.73503 10.5263 6.79735 11.464C5.85967 12.4016 5.33289 13.6734 5.33289 14.9995H5.33289Z" fill="#A259FF"/>
</svg>
