<svg width="31" height="30" viewBox="0 0 31 30" fill="none" xmlns="http://www.w3.org/2000/svg">
<g clip-path="url(#clip0_27_1503)">
<rect width="30" height="30" transform="translate(0.604675)" fill="black"/>
<path d="M0.604675 0H30.6047V30H0.604675V0ZM28.1496 22.8457C27.9328 21.4746 27.0363 20.3262 24.3937 19.2539C23.4738 18.8262 22.4484 18.5215 22.1496 17.8301C22.0383 17.4199 22.0148 17.1973 22.091 16.9512C22.2844 16.1426 23.2336 15.9023 23.9836 16.125C24.4699 16.2773 24.9211 16.6465 25.2023 17.25C26.4973 16.4062 26.4973 16.4062 27.3937 15.8437C27.0598 15.3223 26.8898 15.0938 26.6613 14.8711C25.8762 13.9863 24.8273 13.5352 23.1223 13.5762L22.2375 13.6875C21.3937 13.8926 20.5851 14.3438 20.0988 14.9414C18.675 16.5527 19.091 19.3652 20.8137 20.5312C22.5187 21.8086 25.0148 22.084 25.3371 23.2852C25.6359 24.75 24.2473 25.2188 22.8762 25.0488C21.8625 24.8262 21.3058 24.3164 20.6848 23.3789L18.3996 24.6914C18.6574 25.2949 18.9621 25.5527 19.4133 26.0801C21.5871 28.2715 27.0246 28.1602 28.0031 24.8262C28.0383 24.7148 28.3019 23.9414 28.0969 22.7637L28.1496 22.8457ZM16.9172 13.7871H14.1105C14.1105 16.207 14.093 18.6152 14.093 21.041C14.093 22.582 14.1691 23.9941 13.923 24.4277C13.507 25.2891 12.4465 25.1777 11.966 25.0313C11.4738 24.7852 11.216 24.4512 10.9289 23.959C10.8469 23.8242 10.7883 23.7129 10.7648 23.7129L8.48553 25.1191C8.86639 25.9043 9.42303 26.584 10.1437 27.0117C11.216 27.6504 12.6516 27.8555 14.1516 27.5215C15.1301 27.2402 15.9738 26.6543 16.4133 25.7578C17.0519 24.5977 16.9172 23.168 16.9113 21.5742C16.9289 19.0078 16.9113 16.4355 16.9113 13.8516L16.9172 13.7871Z" fill="#F7CF00"/>
</g>
<defs>
<clipPath id="clip0_27_1503">
<rect width="30" height="30" fill="white" transform="translate(0.604675)"/>
</clipPath>
</defs>
</svg>
