<svg width="31" height="30" viewBox="0 0 31 30" fill="none" xmlns="http://www.w3.org/2000/svg">
<g clip-path="url(#clip0_27_1512)">
<path d="M15.2209 12.3223C13.7444 12.3223 12.5432 13.5235 12.5432 15C12.5432 16.4766 13.7444 17.6778 15.2209 17.6778C16.6975 17.6778 17.8987 16.4766 17.8987 15C17.8987 13.5235 16.6975 12.3223 15.2209 12.3223ZM7.73267 20.3203L7.14087 20.1738C2.74634 19.0606 0.220947 17.1738 0.220947 14.9942C0.220947 12.8145 2.74634 10.9336 7.14087 9.82033L7.73267 9.67384L7.89673 10.2598C8.34204 11.7949 8.9104 13.2891 9.60181 14.7305L9.73071 14.9942L9.60181 15.2637C8.91626 16.7051 8.34204 18.1992 7.89673 19.7344L7.73267 20.3203ZM6.86548 11.1856C3.52563 12.1231 1.47485 13.5645 1.47485 14.9942C1.47485 16.4238 3.52563 17.8594 6.86548 18.8027C7.27563 17.4961 7.76782 16.2305 8.3479 14.9942C7.76782 13.7578 7.27563 12.4922 6.86548 11.1856ZM22.7092 20.3203L22.5452 19.7344C22.0999 18.1992 21.5315 16.7051 20.8401 15.2637L20.7112 14.9942L20.8401 14.7246C21.5256 13.2832 22.0999 11.7891 22.5452 10.2539L22.7092 9.67384L23.301 9.82033C27.6956 10.9336 30.2209 12.8203 30.2209 14.9942C30.2209 17.1738 27.6956 19.0547 23.301 20.168L22.7092 20.3203ZM22.094 14.9942C22.6975 16.2949 23.1956 17.5664 23.5764 18.8027C26.9221 17.8594 28.967 16.4238 28.967 14.9942C28.967 13.5645 26.9163 12.1289 23.5764 11.1856C23.1663 12.4863 22.6682 13.7578 22.094 14.9942ZM6.85962 11.1797L6.69556 10.5938C5.45337 6.24025 5.82837 3.1172 7.72095 2.02736C9.57837 0.955094 12.5491 2.22072 15.6721 5.4258L16.0999 5.85939L15.6721 6.29298C14.5647 7.44728 13.551 8.68361 12.6428 10.002L12.4729 10.2422L12.1799 10.2656C10.5803 10.3945 8.99829 10.6465 7.44556 11.0274L6.85962 11.1797ZM9.22681 2.89455C8.89282 2.89455 8.59399 2.96486 8.34204 3.11134C7.09985 3.83205 6.88306 6.32228 7.73853 9.6797C9.07446 9.38087 10.4163 9.16994 11.7815 9.04689C12.5608 7.93361 13.4221 6.8672 14.342 5.86525C12.3967 3.97267 10.551 2.89455 9.22681 2.89455ZM21.2151 28.3477C19.4338 28.3477 17.1428 27.0117 14.7698 24.5684L14.342 24.1348L14.7698 23.7012C15.8772 22.5469 16.8909 21.3106 17.7991 19.9922L17.9631 19.752L18.2561 19.7227C19.8499 19.5996 21.4377 19.3477 22.9905 18.961L23.5823 18.8145L23.7463 19.4004C24.9827 23.7539 24.6077 26.877 22.7151 27.9668C22.2639 28.2246 21.7424 28.3535 21.2151 28.3477ZM16.094 24.1231C18.0393 26.0215 19.8909 27.0996 21.2092 27.0996H21.2151C21.5491 27.0996 21.8479 27.0235 22.094 26.8828C23.3362 26.1621 23.5588 23.6719 22.6975 20.3145C21.3616 20.6133 20.0139 20.8242 18.6545 20.9414C17.8752 22.0547 17.0198 23.1153 16.094 24.1231ZM23.5881 11.1797L22.9963 11.0274C21.4377 10.6465 19.8557 10.3945 18.262 10.2656L17.969 10.2422L17.8049 10.002C16.8967 8.68361 15.8831 7.44142 14.7756 6.29298L14.3479 5.85939L14.7756 5.4258C17.8987 2.22072 20.8694 0.955094 22.7268 2.02736C24.6194 3.1172 24.9944 6.24025 23.7581 10.5996L23.5881 11.1797ZM18.6604 9.04689C20.0842 9.18166 21.4436 9.38673 22.7034 9.6797C23.5647 6.32228 23.3362 3.83205 22.0999 3.11134C20.8635 2.3965 18.5374 3.4922 16.0999 5.87111C17.0198 6.87892 17.8752 7.93361 18.6604 9.04689ZM9.22681 28.3477C8.69946 28.3594 8.17798 28.2246 7.72095 27.961C5.82837 26.8711 5.45337 23.7539 6.6897 19.3945L6.85376 18.8086L7.44556 18.9551C8.89282 19.3242 10.4807 19.5762 12.1799 19.7168L12.4729 19.7461L12.637 19.9863C13.5452 21.3047 14.5588 22.5469 15.6663 23.6953L16.0881 24.1289L15.6663 24.5625C13.2991 27.0059 11.0081 28.3477 9.22681 28.3477ZM7.73853 20.3145C6.8772 23.6719 7.10571 26.1621 8.34204 26.8828C9.57837 27.586 11.8987 26.502 14.342 24.1231C13.4221 23.1153 12.5608 22.0547 11.7815 20.9414C10.4221 20.8184 9.07446 20.6133 7.73853 20.3145ZM15.2209 21.0996C14.1897 21.0996 13.135 21.0527 12.0745 20.9649L11.7815 20.9414L11.6116 20.6953C11.0139 19.834 10.4514 18.9551 9.92407 18.0469C9.39673 17.1387 8.9104 16.2129 8.46509 15.2637L8.33618 14.9942L8.46509 14.7246C8.91626 13.7754 9.39673 12.8496 9.92407 11.9414C10.4397 11.0449 11.0081 10.1543 11.6116 9.28712L11.7815 9.04103L12.0745 9.01759C14.1663 8.84181 16.2756 8.84181 18.3616 9.01759L18.6545 9.04103L18.8245 9.28712C20.0198 11.0039 21.0745 12.8262 21.9709 14.7246L22.0999 14.9942L21.9709 15.2637C21.0745 17.1563 20.0256 18.9785 18.8245 20.7012L18.6545 20.9473L18.3616 20.9707C17.3127 21.0527 16.2522 21.0996 15.2209 21.0996ZM12.4788 19.7402C14.3245 19.8809 16.1233 19.8809 17.969 19.7402C19.0002 18.2344 19.9143 16.6465 20.7112 14.9942C19.9202 13.3418 19.0002 11.7598 17.9631 10.2481C16.135 10.1074 14.301 10.1074 12.4729 10.2481C11.4299 11.7598 10.5159 13.3418 9.72485 14.9942C10.5217 16.6465 11.4417 18.2344 12.4788 19.7402Z" fill="#00D4F7"/>
</g>
<defs>
<clipPath id="clip0_27_1512">
<rect width="30" height="30" fill="white" transform="translate(0.220947)"/>
</clipPath>
</defs>
</svg>
