<svg width="50" height="48" viewBox="0 0 50 48" fill="none" xmlns="http://www.w3.org/2000/svg">
<g clip-path="url(#clip0_27_1398)">
<path fill-rule="evenodd" clip-rule="evenodd" d="M24.9255 0C11.1423 0 0 11 0 24.6085C0 35.4865 7.13928 44.6945 17.0434 47.9535C18.2816 48.1985 18.7352 47.424 18.7352 46.7725C18.7352 46.202 18.6944 44.2465 18.6944 42.209C11.7607 43.676 10.3168 39.2755 10.3168 39.2755C9.20255 36.4235 7.55153 35.6905 7.55153 35.6905C5.28214 34.183 7.71684 34.183 7.71684 34.183C10.2342 34.346 11.5551 36.709 11.5551 36.709C13.7832 40.457 17.3735 39.398 18.8179 38.746C19.024 37.157 19.6847 36.057 20.3862 35.446C14.8561 34.8755 9.03776 32.757 9.03776 23.3045C9.03776 20.6155 10.0276 18.4155 11.5959 16.7045C11.3485 16.0935 10.4816 13.567 11.8439 10.1855C11.8439 10.1855 13.9485 9.5335 18.6939 12.7115C20.7256 12.1728 22.8208 11.8988 24.9255 11.8965C27.0301 11.8965 29.1755 12.182 31.1566 12.7115C35.9026 9.5335 38.0071 10.1855 38.0071 10.1855C39.3694 13.567 38.502 16.0935 38.2546 16.7045C39.8643 18.4155 40.8133 20.6155 40.8133 23.3045C40.8133 32.757 34.9949 34.8345 29.4235 35.446C30.3316 36.22 31.1153 37.6865 31.1153 40.009C31.1153 43.309 31.0745 45.9575 31.0745 46.772C31.0745 47.424 31.5286 48.1985 32.7663 47.954C42.6704 44.694 49.8097 35.4865 49.8097 24.6085C49.8505 11 38.6673 0 24.9255 0Z" fill="#24292F"/>
</g>
<defs>
<clipPath id="clip0_27_1398">
<rect width="50" height="48" fill="white"/>
</clipPath>
</defs>
</svg>
